<svg width="17" height="21" viewBox="0 0 17 21" fill="none" xmlns="http://www.w3.org/2000/svg">
<path fill-rule="evenodd" clip-rule="evenodd" d="M15.4934 6.87225C14.8293 6.657 13.268 6.65963 10.9841 6.58481C11.092 5.96925 11.1169 5.41406 11.1169 4.42837C11.1169 2.07375 9.72825 0 8.5 0C7.63247 0 6.91741 0.876094 6.90625 1.95366C6.89456 3.27534 6.56359 5.55778 4.78125 6.71541C4.65056 6.80072 4.27656 7.02844 4.22184 7.05797L4.25 7.0875C3.97109 6.79022 3.58434 6.5625 3.1875 6.5625H1.59375C0.715062 6.5625 0 7.44581 0 8.53125V19.0312C0 20.1167 0.715062 21 1.59375 21H3.1875C3.81969 21 4.34881 20.5282 4.60488 19.8667C4.61125 19.8693 4.62241 19.8732 4.62984 19.8745C4.66491 19.8863 4.70634 19.8988 4.75681 19.9152C4.76638 19.9185 4.77116 19.9198 4.78125 19.9231C5.08725 20.0169 5.67641 20.1908 6.93547 20.5485C7.20534 20.6246 8.63122 21 10.1081 21H13.0124C13.8975 21 14.5355 20.5793 14.9154 19.7348C14.9207 19.7216 15.0429 19.427 15.1427 19.0286C15.2177 18.7287 15.2453 18.3041 15.155 17.8736C15.7255 17.3893 15.9093 16.6569 16.0289 16.1805C16.2292 15.3989 16.1691 14.8116 16.0299 14.3909C16.3508 14.0168 16.6244 13.4466 16.7397 12.5757C16.8114 12.0363 16.7344 11.4811 16.533 11.0191C16.8337 10.6017 16.9708 10.0767 16.9867 9.59109L16.9931 9.45394C16.9968 9.36797 17 9.31481 17 9.12581C17 8.29697 16.5352 7.23975 15.4934 6.87225ZM3.71875 19.0312C3.71875 19.3942 3.48128 19.6875 3.1875 19.6875H1.59375C1.29997 19.6875 1.0625 19.3942 1.0625 19.0312V8.53125C1.0625 8.16834 1.29997 7.875 1.59375 7.875H3.1875C3.48128 7.875 3.71875 8.16834 3.71875 8.53125V19.0312ZM15.9253 9.53859C15.9147 9.86278 15.8047 10.5 14.875 10.5C14.0781 10.5 13.8125 10.5 13.8125 10.5C13.6653 10.5 13.5469 10.647 13.5469 10.8281C13.5469 11.0092 13.6653 11.1562 13.8125 11.1562C13.8125 11.1562 14.0452 11.1562 14.8421 11.1562C15.6389 11.1562 15.7436 11.9726 15.6921 12.3664C15.6262 12.8559 15.4403 13.7812 14.543 13.7812C13.6467 13.7812 13.2812 13.7812 13.2812 13.7812C13.1341 13.7812 13.0156 13.9276 13.0156 14.1094C13.0156 14.2898 13.1341 14.4375 13.2812 14.4375C13.2812 14.4375 13.9124 14.4375 14.3273 14.4375C15.224 14.4375 15.1449 15.2821 15.0163 15.7861C14.8468 16.4482 14.7432 17.0625 13.6133 17.0625C13.2313 17.0625 12.7468 17.0625 12.7468 17.0625C12.5997 17.0625 12.4812 17.2088 12.4812 17.3906C12.4812 17.5711 12.5997 17.7188 12.7468 17.7188C12.7468 17.7188 13.115 17.7188 13.5798 17.7188C14.161 17.7188 14.1881 18.398 14.1275 18.6414C14.0611 18.9079 13.9825 19.1054 13.9793 19.1146C13.8189 19.4722 13.5602 19.6875 13.0124 19.6875H10.1081C8.64928 19.6875 7.20216 19.2787 7.16497 19.2682C4.95816 18.6401 4.84181 18.5916 4.70316 18.543C4.70316 18.543 4.25372 18.4492 4.25372 17.9648L4.25 8.90072C4.25 8.59294 4.40884 8.31469 4.67181 8.21691C4.70475 8.20116 4.74937 8.18409 4.78125 8.16769C7.208 6.92606 7.94697 4.20394 7.96875 1.96875C7.97194 1.65441 8.16797 1.3125 8.5 1.3125C9.06153 1.3125 10.0544 2.70506 10.0544 4.42838C10.0544 5.98434 10.0034 6.25341 9.5625 7.875C14.875 7.875 14.8378 7.9695 15.3064 8.12109C15.8876 8.3265 15.9375 8.92106 15.9375 9.12581C15.9375 9.35091 15.9322 9.31809 15.9253 9.53859Z" fill="white"/>
<path fill-rule="evenodd" clip-rule="evenodd" d="M2.42854 17C1.98169 17 1.61902 17.448 1.61902 18C1.61902 18.552 1.98169 19 2.42854 19C2.8754 19 3.23807 18.552 3.23807 18C3.23807 17.448 2.8754 17 2.42854 17ZM2.42854 18.3333C2.28013 18.3333 2.1587 18.1833 2.1587 18C2.1587 17.8167 2.28013 17.6667 2.42854 17.6667C2.57696 17.6667 2.69838 17.8167 2.69838 18C2.69838 18.1833 2.57696 18.3333 2.42854 18.3333Z" fill="white"/>
</svg>
