<svg width="102" height="24" viewBox="0 0 102 24" fill="none" xmlns="http://www.w3.org/2000/svg">
<path d="M21.976 17.8017C21.976 18.4257 21.556 18.7617 20.716 18.8097C20.452 19.0017 20.176 19.0977 19.888 19.0977L18.556 19.2777H17.908L17.404 19.6377L16.576 19.6737L16.252 19.9257L14.488 19.9977L13.48 20.4657H13.3C13.132 20.4657 13.012 20.4777 12.94 20.5017L12.76 20.6817C12.52 20.8017 12.292 20.8617 12.076 20.8617C11.932 20.8617 11.74 20.8137 11.5 20.7177L10.708 20.8977L9.88 20.9337L9.016 21.1857H6.892L5.704 20.8977L4.732 20.9697L4.408 20.6817L3.724 20.6457C2.668 19.8537 1.936 19.0257 1.528 18.1617C1.36 17.5857 1.18 17.0097 0.988 16.4337L0.7 15.7497L1.06 14.5257L0.844 13.0497L1.168 12.8337L1.24 11.4657L1.492 10.7457L1.672 9.66567V7.43367L1.996 6.85767L2.068 6.56967L1.996 5.27367L2.284 4.98567L1.96 4.73367L2.392 3.43767L2.5 3.40167L2.284 2.82567L3.076 2.50167C3.436 2.18967 3.736 2.00967 3.976 1.96167L4.912 2.10567L5.74 3.83367L5.236 4.22967C5.356 4.39767 5.416 4.58967 5.416 4.80567L5.02 5.88567V7.10967L4.624 8.22567L4.516 9.26967L3.976 11.4297V11.7177C3.976 11.9817 3.94 12.2097 3.868 12.4017L3.796 12.9057L3.724 13.5537L3.796 14.6697L3.688 14.9577L3.976 16.5417L4.48 17.6577V17.7657L5.812 18.5577L7.756 18.7377L8.332 18.7017L9.7 18.4857H10.672L10.924 18.3057L12.904 18.2337L13.336 17.9817L14.776 17.9457L15.424 17.7297L17.764 17.6217L18.736 17.3697C18.976 17.3937 19.264 17.4057 19.6 17.4057L19.96 17.1177C20.272 16.9977 20.56 16.9377 20.824 16.9377C21.592 16.9377 21.976 17.2257 21.976 17.8017ZM48.9659 21.2937L48.4619 22.2297L47.4539 22.5177C47.0219 22.7577 46.6379 22.9017 46.3019 22.9497L45.8699 23.2377C45.8219 23.2377 45.7379 23.2497 45.6179 23.2737C45.4979 23.2737 45.4019 23.2737 45.3299 23.2737C44.4179 23.2737 43.7099 22.9737 43.2059 22.3737L42.9899 22.1217L42.7379 22.0857C42.2579 22.0137 41.8859 21.8097 41.6219 21.4737C41.4539 21.1857 41.2739 20.8857 41.0819 20.5737L40.9019 20.3217L40.6499 19.4217L40.2179 18.8097L39.9299 17.8737L39.6059 17.2257L39.0299 13.9857V12.8697L38.8139 13.0857L38.2739 13.4457C38.2499 13.8537 38.0699 14.0577 37.7339 14.0577L37.3739 14.4537L36.8699 14.7417L36.5099 15.1017C36.4139 15.4137 36.1979 15.6417 35.8619 15.7857L35.4299 16.2537L34.8539 16.5057L34.4219 17.0457L31.5059 19.0977L30.2459 19.8537L29.4539 20.4297L28.9499 20.5737L28.0499 21.2937L27.3299 21.6177L26.1419 21.5817L25.4579 20.8257L24.9539 20.5017V19.8537L24.6659 19.6017L24.3059 17.4057L24.1979 17.1177L24.0539 15.5697L24.2699 14.8857L24.1619 14.4537L24.2699 13.9137L24.1259 12.3297L23.9459 12.0417C23.9939 11.6577 24.1259 11.3697 24.3419 11.1777L24.2339 11.0337L24.3779 10.2777L24.1259 9.80967V9.05367L24.3779 8.69367L24.2699 8.15367L24.5219 7.14567L24.3419 5.88567L24.4859 5.38167L24.3419 4.69767L24.7019 4.30167C24.8459 4.03767 25.0739 3.90567 25.3859 3.90567H25.6739L26.5379 4.15767C26.7779 4.25367 26.9579 4.45767 27.0779 4.76967C27.2699 4.88967 27.4619 5.20167 27.6539 5.70567L27.2939 6.20967C26.9819 7.38567 26.8259 8.14167 26.8259 8.47767V8.58567C26.8739 8.92167 27.0059 9.18567 27.2219 9.37767C26.8859 10.7937 26.7179 11.9457 26.7179 12.8337V13.0857L27.0419 13.5177L26.8979 14.3097L26.8259 15.3897L27.0419 16.0377L26.5019 16.5057C26.8859 17.3937 27.0779 18.0177 27.0779 18.3777H28.0499C28.0979 18.2817 28.1699 18.1737 28.2659 18.0537L28.8059 18.0177L29.2379 17.5137C29.4779 17.2977 29.7179 17.1297 29.9579 17.0097C30.1019 16.8177 30.3179 16.6857 30.6059 16.6137L31.5419 16.0377L31.5059 15.6777L32.3339 15.5337L32.9459 14.8857L32.9819 14.8137L33.0539 14.7777L33.3059 14.4897L33.5939 14.6337L33.9539 14.3457L34.2419 13.6257L34.5299 13.6617C34.7699 13.4697 35.0339 13.2897 35.3219 13.1217L35.4299 12.9777L35.6459 12.7617V12.1857L36.2579 12.0057L36.6539 11.5377L37.0499 11.3577L37.1219 10.8537H37.3739C37.4699 10.7337 37.6259 10.6257 37.8419 10.5297V10.1697L38.3099 10.0257L38.9219 8.87367L39.2099 8.00967L39.3179 7.18167L39.7139 6.56967L39.7859 6.13767L39.8579 5.20167L40.1099 4.55367L41.0099 3.79767L42.0539 4.33767L42.3059 4.62567C42.6899 4.86567 43.0379 5.14167 43.3499 5.45367L43.0259 6.02967L43.0619 6.49767C42.9899 6.95367 42.7739 7.26567 42.4139 7.43367L42.1619 7.90167V8.47767L41.9099 9.05367L41.9459 10.0257C41.8499 10.1697 41.7419 10.2417 41.6219 10.2417C41.5979 10.2417 41.5619 10.2297 41.5139 10.2057C41.8739 10.4217 42.0539 10.7697 42.0539 11.2497C42.0539 11.4177 42.0419 11.5377 42.0179 11.6097L41.7299 11.6457L41.8379 12.0057L41.7299 12.9417L41.9819 13.5177L41.8739 14.3097C41.8979 14.4057 41.9099 14.5617 41.9099 14.7777C42.1019 15.0177 42.1979 15.2577 42.1979 15.4977C42.1979 15.5217 42.1979 15.5697 42.1979 15.6417C42.1739 15.6897 42.1619 15.7377 42.1619 15.7857L42.3059 16.2177C42.4739 16.9857 42.7619 17.8257 43.1699 18.7377L43.5299 19.2777L43.6379 19.4937L43.9979 19.8537L44.8259 20.6457L45.4019 20.7537L45.6179 20.3937L46.1939 20.6097L46.3379 20.5377C46.6259 20.3217 46.9499 20.2137 47.3099 20.2137C47.4779 20.2137 47.9459 20.2737 48.7139 20.3937L48.9659 21.2937ZM73.2408 6.46167L73.1328 6.64167C72.9408 7.79367 72.7368 8.48967 72.5208 8.72967L72.4488 8.94567V10.6377L72.0888 11.3577L72.1968 11.7897L71.8368 13.2297L71.9808 13.6257L71.7288 14.8857L71.7648 15.4977L71.5128 16.2897L71.8368 17.2257L71.2248 18.0537L71.3688 18.5217L71.0808 19.0257L71.1888 19.1337L71.2968 20.7897L71.7648 21.6177L71.1528 22.0857L70.7928 22.6617L69.4608 22.3017L69.2448 20.6817L69.0288 20.6097C68.9328 19.7697 68.8848 18.9057 68.8848 18.0177L68.7768 17.8377L68.1648 17.7297L67.9848 17.9457L67.4448 17.3337L66.9408 17.4777L66.1488 16.9017C65.5728 16.8537 65.1528 16.8057 64.8888 16.7577L64.5648 16.4697L64.4208 16.5057L61.8288 14.9577L61.6128 14.7057L60.8208 14.4177L60.3528 13.8057L59.9568 13.6257L59.3808 13.1217L57.6888 12.4377L56.6088 11.1417L56.0328 11.0697L55.6728 10.5657C55.1448 10.2297 54.6768 9.83367 54.2688 9.37767V9.70167L53.9808 11.2497L54.3048 12.2937L53.7648 14.0577L53.8728 14.5977C53.9688 14.7657 54.0168 14.9817 54.0168 15.2457C54.0168 15.5577 53.9688 15.8217 53.8728 16.0377L54.1968 16.1097L53.7648 17.3697V18.1617L53.6208 18.9177L53.8728 19.3857L53.4048 19.9977C53.4768 20.0937 53.5128 20.2257 53.5128 20.3937C53.3688 20.9217 53.1168 21.4137 52.7568 21.8697H52.1088C51.3648 21.8697 50.9808 21.3537 50.9568 20.3217L51.3528 19.0977L51.1728 18.5217L51.3888 17.9817C51.3648 17.8617 51.3528 17.6937 51.3528 17.4777C51.3528 17.3097 51.3648 17.1897 51.3888 17.1177L51.1368 16.7937V16.5417C51.1368 16.4217 51.1488 16.2777 51.1728 16.1097C51.1728 15.9177 51.1728 15.7857 51.1728 15.7137C51.1728 15.4737 51.0768 15.1137 50.8848 14.6337L51.1728 14.2017L51.3528 13.5897L51.1728 12.5817L51.4608 11.5377L51.2448 10.8537L51.5328 9.16167L51.4608 7.93767L51.6048 6.89367L51.4608 6.56967L51.5328 4.48167C51.4848 4.24167 51.4608 4.07367 51.4608 3.97767C51.4608 3.80967 51.4968 3.65367 51.5688 3.50967C51.6408 3.12567 51.9288 2.92167 52.4328 2.89767L52.7568 2.96967L53.0448 2.60967C53.5968 2.89767 53.9808 3.30567 54.1968 3.83367H54.5208L54.6288 4.94967L55.0968 5.27367L55.1328 5.70567L55.6728 6.02967L55.9608 7.03767L56.1408 7.21767L57.1488 7.90167C57.3888 8.02167 57.5328 8.23767 57.5808 8.54967L57.6528 8.69367L58.5168 9.23367L59.4888 10.2057L62.0808 12.2217C62.5848 12.3177 62.9928 12.6177 63.3048 13.1217L64.3848 13.4457L65.2848 14.1657L65.7168 14.2737L66.7968 14.7777L67.8408 15.1017C68.2248 15.4617 68.5848 15.7137 68.9208 15.8577L69.0288 15.3177L69.3888 14.5977L69.2448 14.4537L69.4248 12.4737L69.7488 11.8617V11.7537L69.3168 11.1777L69.7488 9.70167L69.6048 8.47767L69.9288 6.31767L69.4608 5.84967L69.9288 4.44567L69.6408 4.12167L70.0008 3.65367L69.8928 3.25767L71.6208 2.42967L71.8008 2.82567L72.8808 3.00567C72.6888 3.46167 72.5928 3.80967 72.5928 4.04967C72.5928 4.16967 72.6048 4.26567 72.6288 4.33767C72.8208 4.60167 72.9288 4.84167 72.9528 5.05767L72.7368 5.63367L73.2408 6.46167ZM101.294 21.7617C101.27 22.3617 100.874 22.7817 100.106 23.0217L98.7378 22.3737H98.3418L97.8738 22.0137H97.2978L96.8658 21.2937L96.5058 21.1137L96.0378 20.2857L95.3898 19.6017V19.3137L95.1018 19.0617L95.0298 18.4857L94.5618 18.0537L93.8058 16.3617L93.4818 15.9657L93.3378 14.9577L92.8698 14.3457L92.1138 14.2377L91.2858 14.7057L91.1058 14.5257L90.5298 14.8857L90.3498 14.4897C90.2298 14.5137 90.0498 14.5257 89.8098 14.5257C89.5458 14.5257 89.3538 14.5137 89.2338 14.4897H88.9458L88.1898 14.8857L87.3618 14.7777H87.2178L86.6418 15.1017L86.1738 14.9217C85.7178 14.9217 85.3818 14.8737 85.1658 14.7777H84.9858L84.0498 15.2097L83.6898 14.8137L83.0418 14.6337L82.8978 14.7417C82.3698 15.4377 81.9858 15.9297 81.7458 16.2177L81.1698 16.3617C80.2578 17.6817 79.6818 18.3897 79.4418 18.4857L79.2978 18.5217L78.1458 19.9257H78.0018L77.2818 21.0417L75.9138 21.7977C75.6738 21.8457 75.4818 21.8697 75.3378 21.8697C74.8818 21.8697 74.4498 21.7017 74.0418 21.3657L74.4738 20.4657V19.9257L74.6178 19.7457L74.6898 19.0257L75.8058 18.8817L76.0938 18.7017C76.3818 18.5337 76.5498 18.2817 76.5978 17.9457C77.0298 17.8257 77.2938 17.5857 77.3898 17.2257C78.0378 16.8897 78.4578 16.3617 78.6498 15.6417L79.2618 15.4257L80.1618 14.0937C79.9698 13.8297 79.8258 13.4937 79.7298 13.0857L80.4858 12.4737V11.7897L81.8898 11.8977L82.2498 11.7177C82.3698 11.3097 82.6098 11.0217 82.9698 10.8537L83.0418 10.1697L83.7978 9.77367C83.8698 9.72567 84.0018 9.66567 84.1938 9.59367V9.37767C84.1938 9.16167 84.2418 8.96967 84.3378 8.80167C84.8418 8.44167 85.1058 7.94967 85.1298 7.32567L85.6338 7.21767L85.8138 6.89367L86.0658 6.85767L86.7498 5.56167L86.9298 5.63367L87.2178 5.48967V4.51767H87.4698C88.0698 3.86967 88.3698 3.44967 88.3698 3.25767L88.5498 3.11367L88.3698 2.57367C88.9458 1.87767 89.4138 1.51767 89.7738 1.49367L90.4578 0.917668L91.2498 1.70967L92.2578 2.24967L92.3658 3.18567C92.4858 3.32967 92.5818 3.47367 92.6538 3.61767C92.9898 4.02567 93.1818 4.44567 93.2298 4.87767L93.4458 5.77767L93.9858 6.56967L94.3098 7.75767L94.3818 8.33367L95.0298 9.12567L94.8858 9.37767L95.1738 9.62967V10.3497L95.2458 10.8897C95.1738 11.2497 95.1378 11.3817 95.1378 11.2857L95.3178 11.4657C95.3178 11.4657 95.3898 11.5617 95.5338 11.7537C95.8458 11.7297 96.0738 11.6937 96.2178 11.6457H97.2978C97.4898 11.6937 97.6338 11.7177 97.7298 11.7177C97.8738 11.7177 98.0178 11.6697 98.1618 11.5737C98.3298 11.4537 98.5818 11.3937 98.9178 11.3937C99.1578 11.3937 99.5178 11.5137 99.9978 11.7537L101.078 11.8257C101.126 12.0177 101.15 12.1617 101.15 12.2577C101.15 12.6177 100.97 12.8937 100.61 13.0857L100.07 12.9057L99.0618 13.6257L98.2338 13.5177L97.8738 13.6977L97.0818 13.7697V13.6257L96.1458 13.8417L96.1098 14.0577L96.1818 14.8857L96.6498 15.5337L96.7218 16.1817L97.5498 17.3337L97.4778 17.7297L97.8018 18.0537L98.6658 19.3857L99.2778 19.9977L99.4218 20.2857L100.07 20.6097L100.322 21.1857L101.294 21.7617ZM92.4018 12.0417H92.3658L91.9698 11.6457L92.4018 11.2857C92.2098 11.1177 92.1138 10.8657 92.1138 10.5297L91.8618 10.3857L91.6818 8.90967L91.2498 8.29767L91.1418 7.68567L91.0698 7.54167H90.8178L90.7098 6.24567L90.3858 5.77767L90.2058 5.70567L90.0978 5.56167L89.9538 5.81367L89.0898 6.89367L88.8018 7.50567L88.0818 8.15367L87.9378 8.80167L87.1098 9.16167C86.9898 9.88167 86.6298 10.3977 86.0298 10.7097L85.7778 11.4297L85.3098 11.8977H85.6338C86.0658 12.0417 86.4258 12.1137 86.7138 12.1137H86.8578C87.0018 12.0417 87.1458 12.0057 87.2898 12.0057C87.4578 12.0057 87.6498 12.0537 87.8658 12.1497L88.0098 12.1857C88.1538 12.1617 88.3818 12.1497 88.6938 12.1497C89.0778 12.1497 89.3658 12.1617 89.5578 12.1857L90.8178 12.0417L91.6458 12.4737C92.0538 12.3057 92.2938 12.1377 92.3658 11.9697C92.3658 11.9937 92.3778 12.0057 92.4018 12.0057C92.4018 12.0057 92.4018 12.0177 92.4018 12.0417Z" fill="black"/>
</svg>
